<?xml version="1.0" standalone="no"?>
<!DOCTYPE svg PUBLIC "-//W3C//DTD SVG 20010904//EN"
 "http://www.w3.org/TR/2001/REC-SVG-20010904/DTD/svg10.dtd">
<svg version="1.0" xmlns="http://www.w3.org/2000/svg"
 width="300.000000pt" height="300.000000pt" viewBox="0 0 300.000000 300.000000"
 preserveAspectRatio="xMidYMid meet">
<metadata>
Created by potrace 1.14, written by Peter Selinger 2001-2017
</metadata>
<g transform="translate(0.000000,300.000000) scale(0.100000,-0.100000)"
fill="#000000" stroke="none">
<path d="M1445 2809 c-9 -38 -9 -156 -1 -195 18 -90 16 -97 -32 -123 -28 -15
-42 -7 -35 19 3 11 1 20 -5 20 -14 0 -82 -80 -82 -96 0 -28 -22 -23 -62 13
-78 72 -110 108 -145 166 -25 40 -39 55 -47 47 -12 -12 -15 -194 -4 -257 4
-24 14 -55 21 -70 28 -55 28 -68 3 -96 -27 -30 -38 -34 -35 -14 1 6 1 26 0 42
-2 27 -6 22 -36 -40 -18 -38 -33 -72 -33 -75 0 -3 0 -32 -1 -64 -1 -64 -15
-67 -25 -6 -13 79 -25 116 -25 74 0 -11 -2 -32 -5 -49 -3 -16 -8 -66 -10 -110
-5 -75 -19 -131 -40 -164 -8 -12 -12 -7 -22 20 l-12 34 -2 -30 c0 -16 -3 -64
-5 -105 -10 -175 -15 -193 -36 -147 -6 14 -17 28 -25 31 -7 3 -1 -22 17 -66
21 -51 29 -87 29 -129 0 -33 -3 -59 -7 -59 -5 0 -19 14 -33 31 l-25 30 3 -78
c3 -69 13 -116 37 -176 7 -16 5 -16 -19 -6 -34 16 -44 5 -21 -21 14 -16 19
-39 21 -98 1 -42 9 -97 18 -121 20 -54 20 -50 -4 -44 -24 6 -25 -1 -4 -58 11
-32 14 -61 9 -104 -3 -33 -7 -107 -9 -165 -1 -58 -6 -111 -10 -118 -4 -7 -58
-50 -119 -96 -62 -46 -132 -103 -157 -127 -48 -46 -133 -168 -144 -206 l-7
-23 1075 0 c592 0 1076 4 1076 8 0 16 -60 99 -117 162 -51 56 -214 186 -326
260 -35 23 -50 52 -63 119 -9 50 -37 171 -44 196 -5 17 -12 41 -14 55 -7 32
-19 77 -44 167 -11 40 -18 74 -14 77 6 3 170 -59 179 -68 2 -2 6 -16 9 -32 3
-15 24 -45 49 -68 24 -23 46 -50 49 -61 13 -46 181 -121 266 -119 25 0 63 -8
85 -17 65 -30 101 -25 127 16 13 18 33 38 44 44 12 5 33 34 48 63 29 61 28 86
-11 188 -19 51 -23 76 -18 116 6 48 4 52 -33 95 -21 24 -53 71 -71 104 -43 77
-174 243 -284 359 -66 69 -76 85 -82 133 -14 110 -54 172 -150 228 -37 21 -84
59 -104 83 -20 25 -48 59 -63 76 -47 51 -36 60 27 21 22 -13 44 -25 48 -25 13
0 -63 102 -92 125 -14 11 -37 30 -51 43 l-25 23 40 -6 40 -6 -35 31 c-33 30
-110 70 -134 70 -6 0 -18 5 -26 10 -12 8 -11 13 9 34 23 24 22 49 -2 41 -19
-7 -32 7 -47 54 -24 75 -145 241 -175 241 -8 0 -16 -14 -20 -31z"/>
</g>
</svg>
